<?xml version="1.0" encoding="utf-8"?>
<!-- Generator: Adobe Illustrator 23.0.2, SVG Export Plug-In . SVG Version: 6.00 Build 0)  -->
<svg version="1.1" id="Layer_1" xmlns="http://www.w3.org/2000/svg" xmlns:xlink="http://www.w3.org/1999/xlink" x="0px" y="0px"
	 viewBox="0 0 512 512" style="enable-background:new 0 0 512 512;" xml:space="preserve">
<style type="text/css">
	.st0{fill:#FDFDFD;}
	.st1{fill:#404040;}
	.st2{fill:#3F3F3F;}
	.st3{fill:#434343;}
	.st4{fill:#444444;}
	.st5{fill:#464646;}
	.st6{fill:#494949;}
	.st7{fill:#414141;}
	.st8{fill:#474747;}
	.st9{fill:#4B4B4B;}
	.st10{fill:#484848;}
	.st11{fill:#4A4A4A;}
	.st12{fill:#4D4D4D;}
	.st13{fill:#525252;}
	.st14{fill:#454545;}
	.st15{fill:#555555;}
	.st16{fill:#565656;}
	.st17{fill:#ECECEC;}
	.st18{fill:#EBEBEB;}
	.st19{fill:#FBFBFB;}
	.st20{fill:#F6F6F6;}
	.st21{fill:#F5F5F5;}
</style>
<g>
	<g>
		<path class="st0" d="M0.94,0.98c170.6,0,341.2,0,511.9,0c0,170.52,0,341.09,0,511.81c-170.57,0-341.24,0-511.9,0
			C0.94,342.27,0.94,171.65,0.94,0.98z M163.48,413.77c0.54,0.62,1.08,1.24,1.62,1.86c0,18.21,0,36.43,0,54.34
			c18.14,8.86,52.8,17.66,70.15,17.89c0-1.55,0-3.11,0-4.66c0-15.9-0.52-31.83,0.2-47.69c0.42-9.19-1.36-16.55-9.17-21.87
			c-0.64-0.43-1.08-1.15-1.69-1.64c-1.84-1.48-2.52-3.26-2.5-5.71c0.13-19.05,0.03-38.1,0.22-57.15c0.02-1.93,1.06-4.18,2.33-5.7
			c2.61-3.13,5.81-5.76,8.53-8.81c1.04-1.17,2.01-2.91,2.02-4.4c0.15-15.11,0.13-30.23,0.02-45.34c-0.01-1.39-0.69-3.05-1.61-4.11
			c-1.84-2.12-4.06-3.91-6.13-5.83c-3.35-5.14-7.81-7.91-14.17-6.67c-0.45,0.09-0.95-0.05-1.41,0.02c-2.71,0.39-4.67-0.62-6.61-2.59
			c-11.61-11.73-23.31-23.36-35.09-34.91c-2.06-2.02-3-4.02-2.96-6.97c0.13-9.74-0.05-19.48-0.12-29.21c0-17.63,0-35.27,0-52.9
			c0.14-2.44,0.29-4.88,0.46-7.78c3.52,0,6.72,0,9.9,0c0-13.47,0-26.46,0-39.45c0.06-10.38-0.6-20.82,0.39-31.11
			c0.86-8.99-2.55-14.95-9.86-20.07c-6.49,3.15-13.35,6.18-19.93,9.72c-19.9,10.69-38.06,23.78-53.88,39.98
			c-3.7,3.85-7.57,7.55-11.08,11.57c-10.04,11.5-19.24,23.6-26.4,37.16c-10.11,16.52-17.34,34.26-22.46,52.9
			C25.92,223.59,23.71,253.04,27,284c6.23-6.2,11.81-11.64,17.25-17.23c2.1-2.16,4.35-3.2,7.44-3.2
			c29.24,0.08,58.47,0.01,87.71,0.15c1.92,0.01,4.19,1.08,5.69,2.37c4.03,3.48,7.72,7.35,11.55,11.06c1.27,1.38,2.51,2.79,3.83,4.12
			c10.11,10.1,20.3,20.13,30.3,30.35c1.36,1.39,2.5,3.71,2.52,5.61c0.17,21.99,0.14,43.98,0.04,65.98
			c-0.01,1.54-0.64,3.46-1.67,4.55c-3.86,4.1-8.02,7.93-12.06,11.87c-0.72-0.03-1.45-0.06-2.17-0.09c-2.99-1.71-5.7-1.48-8.24,0.99
			c-3.61,3.5-7.23,6.98-10.99,10.3c-1.82,1.6-2.43,3.32-2.41,5.72c0.11,14.76,0.05,29.52,0.05,44.27c0,5.86,0.92,6.83,7.43,7.56
			c0-3.78-0.02-7.55,0-11.31C163.32,442.65,163.4,428.21,163.48,413.77z M333.35,396.69c0.36,0.36,0.73,0.71,1.09,1.07
			c-0.03,15.57-0.19,31.14-0.01,46.7c0.05,4.06-0.74,7.23-4.02,9.82c-1.2,0.95-2.39,2.73-2.45,4.18
			c-0.26,6.42-0.11,12.87-0.11,19.24c0.58,0.12,0.91,0.3,1.17,0.23c1.21-0.31,2.43-0.62,3.61-1.05
			c64.82-23.54,111.27-66.72,138.78-130.06c4.52-10.4,4.34-10.41-3.77-18.41c-1.81-1.79-3.66-2.51-6.21-2.5
			c-16.98,0.1-33.97,0.1-50.95,0c-2.55-0.01-4.37,0.7-6.18,2.52c-7.43,7.45-15.01,14.74-22.54,22.09c-0.36-0.35-0.72-0.7-1.08-1.05
			c1.06-1.27,2.13-2.54,3.37-4.03c-6.86-1.25-12.05-0.15-17.01,5.1c-13.06,13.81-26.78,27-40.29,40.38
			c-1.75,1.73-2.8,3.39-2.79,6.06c0.12,26.24,0.07,52.49,0.09,78.73c0,1.12,0.24,2.24,0.37,3.36c0.34,0.02,0.67,0.05,1.01,0.07
			c0.19-1.08,0.53-2.16,0.54-3.25c0.06-5.19,0.23-10.38-0.05-15.55c-0.18-3.3,0.69-5.8,3.34-7.71c2.68-1.94,3.24-4.56,3.2-7.79
			c-0.16-14.46-0.1-28.92-0.03-43.37C332.44,399.89,333.03,398.29,333.35,396.69z M289.43,212.57c0-12.29,0-24.58,0-36.87
			c0.1-1.55,0.31-3.1,0.3-4.65c-0.08-14.83-0.19-29.65-0.29-44.47c0.1-8.58,0.29-17.17,0.29-25.75
			c-0.01-11.87-0.18-23.74-0.27-35.61c0.1-11.63,0.18-23.25,0.32-34.88c0.02-2.02-0.95-2.79-2.83-2.92
			c-8.62-0.6-17.22-1.57-25.85-1.79c-17.16-0.43-34.17,1.45-50.98,4.83c-7.14,1.44-14.15,3.54-21.07,5.3c0,10.27,0,19.85,0,29.43
			c0,20.47,0,40.93,0,61.4c0,16.37,0,32.75,0,49.12c0,12.28,0,24.56,0,36.84c-0.06,3.13-0.27,6.27-0.1,9.4
			c0.07,1.26,0.63,2.79,1.51,3.67c9.86,9.86,19.82,19.62,29.75,29.41c6.28,6.37,12.45,12.87,18.91,19.05
			c2.5,2.39,3.4,4.83,3.39,8.25c-0.1,66.86-0.08,133.73-0.08,200.59c0,1.84,0,3.67,0,5.96c6.92,0,13.25,0,19.92,0
			c0-1.92,0-3.62,0-5.33c0-36.97,0.03-73.94-0.06-110.91c-0.01-3.06,0.79-5.26,3.05-7.39c7.44-7.02,14.63-14.29,22.01-21.37
			c1.73-1.65,2.45-3.34,2.44-5.76c-0.08-27.06-0.05-54.12-0.07-81.18c0-0.93-0.19-1.86-0.29-2.79
			C289.43,240.28,289.43,226.42,289.43,212.57z M313.78,95.41c0,20.47,0,40.93,0,61.4c0,18.58,0,37.16,0,55.73
			c-0.05,10.02-0.82,20.11,0.04,30.06c0.86,9.93-1.58,17.68-9.85,23.38c-4.57,3.14-5.69,7.5-4.56,12.69
			c-0.08,1.72-0.22,3.45-0.22,5.17c-0.02,19.51-0.09,39.02,0.06,58.53c0.02,3.39-0.81,5.85-3.33,8.26
			c-7.96,7.61-15.61,15.54-23.49,23.23c-1.84,1.8-2.53,3.65-2.52,6.2c0.08,22.66,0.04,45.31,0.06,67.97c0,1.2,0.19,2.41,0.32,4
			c4.3,0,8.34,0,12.94,0c0,12.1,0,23.79,0,36.28c11.86-2.25,23-4.37,34.2-6.5c0-2.52,0-4.24,0-5.96c0-26.9,0.11-53.81-0.11-80.71
			c-0.04-4.6,1.23-7.82,4.52-11.05c20.86-20.52,41.45-41.32,62.31-61.84c3.48-3.42,5.71-6.78,4.95-11.83
			c-0.36-2.39-0.06-4.88-0.06-7.35c7.81,0,14.88,0,21.96,0c24.23,0,48.45-0.01,72.68-0.01c0.31-0.25,0.62-0.5,0.94-0.74
			c1.18-7.56,2.35-15.11,3.53-22.67c1.84-15.29,1.54-30.61-0.02-45.88c-0.73-7.11-2.29-14.14-3.47-21.2
			c-0.01-0.62,0.07-1.27-0.06-1.87c-3.93-18.76-9.74-36.88-18.45-54.01c-3.3-6.22-6.33-12.59-9.95-18.62
			c-9.55-15.91-20.65-30.65-34.09-43.53c-0.48-0.6-0.9-1.27-1.45-1.8c-27.13-26.54-58.71-45.67-95.04-56.82
			c-3.81-1.17-7.68-2.14-11.83-3.28C313.78,53.98,313.78,74.7,313.78,95.41z M150.47,463.11c0-16.71,0.06-32.59-0.06-48.47
			c-0.02-2.74,0.77-4.7,2.73-6.61c9.89-9.69,19.64-19.51,29.49-29.25c1.62-1.6,2.64-3.16,2.62-5.67
			c-0.13-17.3-0.01-34.61-0.16-51.91c-0.01-1.65-0.87-3.69-2.03-4.86c-12.95-13.07-26.01-26.05-39.16-38.93
			c-1.2-1.17-3.21-2.13-4.85-2.14c-19.51-0.15-39.01-0.13-58.52-0.03c-1.41,0.01-3.44,0.5-4.12,1.5c-3.94,5.79-9.57,6.25-15.74,5.8
			c-3.44-0.25-6.99,0.39-10.37-0.13c-8.49-1.32-14.91,1.62-19.77,8.48c-0.09,0.13-0.2,0.25-0.32,0.34c-1.77,1.28-1.9,2.91-1.53,4.98
			c10.75,59.47,39.95,107.82,87.48,145.1C126.65,449.52,137.85,456.7,150.47,463.11z M484.32,305.17c-31.27,0-62.14,0-93.04,0
			c0,4.18,0,8.13,0,12.02c30.32,0,60.29,0,90.35,0C482.54,313.18,483.39,309.37,484.32,305.17z M311.46,89.54
			c0-18.82,0-38.03,0-57.74c-3.17-0.65-6.32-1.29-9.51-1.94c-0.24,0.87-0.47,1.32-0.47,1.76c-0.03,15.54-0.06,31.07-0.02,46.61
			c0,1.03,0.18,2.38,0.84,3.02C305.28,84.16,308.46,86.86,311.46,89.54z M268.85,453.97c0,11.96,0,23.37,0,35.05
			c4.15-0.3,8.01-0.58,12.09-0.88c0-11.48,0-22.7,0-34.17C276.83,453.97,272.99,453.97,268.85,453.97z M169.73,136.22
			c0,21.31,0,42.16,0,63.81c2.1-1.98,3.44-3.55,5.07-4.71c3.31-2.33,4.08-5.37,4.02-9.31c-0.22-14.92-0.09-29.84-0.09-44.76
			c0-1.64,0-3.29,0-5.03C175.33,136.22,172.69,136.22,169.73,136.22z M234.87,420.23c0.44-0.25,0.88-0.49,1.31-0.74
			c0-10.5,0.01-21-0.03-31.5c0-0.88-0.1-2.04-0.64-2.6c-3.37-3.55-6.88-6.97-10.35-10.43c-0.88,11.13-0.92,21.76-0.8,32.39
			c0.01,1.07,0.89,2.28,1.66,3.16C228.91,413.8,231.91,416.99,234.87,420.23z"/>
		<path class="st1" d="M150.47,463.11c-12.62-6.41-23.82-13.58-34.32-21.81c-47.53-37.27-76.72-85.62-87.48-145.1
			c-0.37-2.07-0.24-3.7,1.53-4.98c0.13-0.09,0.23-0.21,0.32-0.34c4.86-6.86,11.29-9.8,19.77-8.48c3.38,0.52,6.92-0.12,10.37,0.13
			c6.17,0.45,11.8-0.01,15.74-5.8c0.68-0.99,2.71-1.49,4.12-1.5c19.51-0.1,39.02-0.12,58.52,0.03c1.64,0.01,3.65,0.97,4.85,2.14
			c13.15,12.88,26.2,25.86,39.16,38.93c1.16,1.17,2.02,3.22,2.03,4.86c0.15,17.3,0.03,34.61,0.16,51.91c0.02,2.5-1,4.06-2.62,5.67
			c-9.85,9.73-19.6,19.56-29.49,29.25c-1.96,1.91-2.75,3.88-2.73,6.61C150.53,430.52,150.47,446.39,150.47,463.11z M115.3,290.56
			c0-4.41,0-8.57,0-12.93c-6.46,0-12.77,0-19.09,0c0,4.51,0,8.67,0,12.93C102.68,290.56,108.88,290.56,115.3,290.56z"/>
		<path class="st2" d="M483.68,303.03c-24.23,0-48.45,0.01-72.68,0.01c-7.08,0-14.15,0-21.96,0c0,2.48-0.3,4.96,0.06,7.35
			c0.76,5.05-1.47,8.41-4.95,11.83c-20.86,20.53-41.45,41.32-62.31,61.84c-3.29,3.23-4.55,6.45-4.52,11.05
			c0.22,26.9,0.11,53.81,0.11,80.71c0,1.72,0,3.44,0,5.96c-11.2,2.13-22.34,4.25-34.2,6.5c0-12.49,0-24.19,0-36.28
			c-4.6,0-8.63,0-12.94,0c-0.13-1.59-0.32-2.79-0.32-4c-0.02-22.66,0.02-45.31-0.06-67.97c-0.01-2.55,0.68-4.4,2.52-6.2
			c7.88-7.69,15.53-15.62,23.49-23.23c2.52-2.41,3.35-4.87,3.33-8.26c-0.14-19.51-0.07-39.02-0.06-58.53c0-1.72,0.15-3.45,0.22-5.17
			c2.16,0,4.33,0,6.49,0c0,12.99,0,25.98,0,39c2.66,0,4.59,0,6.89,0c0-13.24,0-26.12,0-39c56.14,0,112.28-0.01,168.42,0.04
			c2.31,0,4.61,0.59,6.92,0.91c-1.18,7.56-2.35,15.11-3.53,22.67C484.3,302.54,483.99,302.78,483.68,303.03z"/>
		<path class="st2" d="M381.75,350.53c7.53-7.35,15.11-14.64,22.54-22.09c1.81-1.81,3.64-2.53,6.18-2.52
			c16.98,0.1,33.97,0.1,50.95,0c2.55-0.02,4.4,0.71,6.21,2.5c8.11,8,8.29,8.01,3.77,18.41c-27.51,63.34-73.96,106.52-138.78,130.06
			c-1.18,0.43-2.4,0.74-3.61,1.05c-0.27,0.07-0.6-0.11-1.17-0.23c0-6.38-0.15-12.82,0.11-19.24c0.06-1.45,1.24-3.23,2.45-4.18
			c3.29-2.59,4.07-5.77,4.02-9.82c-0.18-15.57-0.02-31.14,0.01-46.7c2.6-2.49,5.25-4.93,7.79-7.49
			C355.42,377.04,368.58,363.78,381.75,350.53z"/>
		<path class="st3" d="M305.92,278.67c-2.16,0-4.33,0-6.49,0c-1.13-5.18-0.01-9.54,4.56-12.69c8.27-5.69,10.71-13.45,9.85-23.38
			c-0.86-9.95-0.1-20.03-0.04-30.06c56.95,0,113.91,0,170.86-0.01c1.18,7.06,2.75,14.09,3.47,21.2c1.56,15.27,1.87,30.58,0.02,45.88
			c-2.31-0.32-4.61-0.91-6.92-0.91c-56.14-0.05-112.28-0.04-168.42-0.04c-0.16-1.15-0.31-2.3-0.47-3.43c-2.24,0-4.14,0-6.06,0
			C306.14,276.57,306.03,277.62,305.92,278.67z"/>
		<path class="st4" d="M156.63,277.16c-3.83-3.71-7.52-7.58-11.55-11.06c-1.49-1.29-3.76-2.36-5.69-2.37
			c-29.23-0.15-58.47-0.07-87.71-0.15c-3.09-0.01-5.33,1.04-7.44,3.2C38.82,272.36,33.23,277.8,27,284
			c-3.29-30.96-1.09-60.42,7.25-89.4c44.29,0,88.58,0,132.86-0.01c0.06,9.74,0.25,19.48,0.12,29.21c-0.04,2.95,0.89,4.95,2.96,6.97
			c11.78,11.55,23.48,23.19,35.09,34.91c1.95,1.97,3.91,2.98,6.61,2.59c0.46-0.07,0.96,0.07,1.41-0.02
			c6.36-1.24,10.82,1.53,14.17,6.67c-2.3,0.3-4.61,0.85-6.91,0.86c-19.6,0.07-39.2,0.01-58.81,0.1
			C160.04,275.9,158.34,276.72,156.63,277.16z"/>
		<path class="st1" d="M156.63,277.16c1.71-0.44,3.41-1.26,5.12-1.27c19.6-0.09,39.2-0.03,58.81-0.1c2.31-0.01,4.61-0.56,6.91-0.86
			c2.06,1.93,4.28,3.71,6.13,5.83c0.92,1.06,1.6,2.72,1.61,4.11c0.11,15.11,0.13,30.23-0.02,45.34c-0.01,1.49-0.98,3.23-2.02,4.4
			c-2.72,3.05-5.92,5.68-8.53,8.81c-1.27,1.52-2.31,3.77-2.33,5.7c-0.19,19.05-0.09,38.1-0.22,57.15c-0.02,2.45,0.66,4.23,2.5,5.71
			c0.61,0.49,1.05,1.21,1.69,1.64c7.82,5.32,9.59,12.68,9.17,21.87c-0.72,15.87-0.2,31.79-0.2,47.69c0,1.55,0,3.1,0,4.66
			c-17.35-0.22-52.01-9.03-70.15-17.89c0-17.91,0-36.12,0-54.34c0.96-1.35,1.79-2.82,2.92-4.02c3.8-4.05,7.7-8,11.56-11.98
			c4.04-3.93,8.19-7.76,12.06-11.87c1.03-1.09,1.66-3.01,1.67-4.55c0.11-21.99,0.14-43.99-0.04-65.98c-0.01-1.9-1.15-4.21-2.52-5.61
			c-9.99-10.22-20.18-20.25-30.3-30.35C159.14,279.96,157.91,278.54,156.63,277.16z"/>
		<path class="st5" d="M484.65,212.54c-56.95,0-113.91,0-170.86,0.01c0-18.58,0-37.16,0-55.73c47.33,0,94.66,0,141.99-0.01
			c3.46,0,6.92-0.09,10.37-0.14c8.7,17.13,14.51,35.25,18.45,54.01C484.72,211.28,484.63,211.92,484.65,212.54z"/>
		<path class="st6" d="M466.14,156.66c-3.46,0.05-6.92,0.14-10.37,0.14c-47.33,0.01-94.66,0.01-141.99,0.01c0-20.47,0-40.93,0-61.4
			c33.64,0,67.28,0.02,100.91-0.04c2.47,0,4.94-0.56,7.4-0.86c13.44,12.88,24.55,27.62,34.09,43.53
			C459.81,144.07,462.84,150.45,466.14,156.66z"/>
		<path class="st7" d="M289.43,254.13c0.1,0.93,0.29,1.86,0.29,2.79c0.02,27.06-0.01,54.12,0.07,81.18
			c0.01,2.42-0.72,4.11-2.44,5.76c-7.38,7.07-14.57,14.35-22.01,21.37c-2.26,2.13-3.06,4.34-3.05,7.39
			c0.09,36.97,0.06,73.94,0.06,110.91c0,1.71,0,3.41,0,5.33c-6.67,0-13,0-19.92,0c0-2.29,0-4.12,0-5.96
			c0-66.86-0.02-133.73,0.08-200.59c0-3.42-0.9-5.86-3.39-8.25c-6.46-6.19-12.63-12.68-18.91-19.05c1.67-0.3,3.34-0.87,5.02-0.87
			C246.62,254.1,268.03,254.13,289.43,254.13z"/>
		<path class="st8" d="M167.12,194.6c-44.29,0-88.58,0-132.86,0.01c5.12-18.64,12.35-36.38,22.46-52.9c36.8,0,73.6-0.01,110.4-0.01
			C167.12,159.33,167.12,176.97,167.12,194.6z"/>
		<path class="st9" d="M189.04,126.59c0-20.47,0-40.93,0-61.4c33.47,0.01,66.94,0.02,100.4,0.03c0.1,11.87,0.26,23.74,0.27,35.61
			c0.01,8.58-0.18,17.17-0.29,25.75C255.97,126.58,222.51,126.58,189.04,126.59z"/>
		<path class="st10" d="M189.04,126.59c33.46,0,66.93-0.01,100.39-0.01c0.1,14.82,0.21,29.65,0.29,44.47
			c0.01,1.55-0.19,3.1-0.3,4.65c-33.46,0-66.92,0.01-100.38,0.01C189.04,159.33,189.04,142.96,189.04,126.59z"/>
		<path class="st11" d="M167.12,141.7c-36.8,0-73.6,0.01-110.4,0.01c7.16-13.55,16.37-25.66,26.4-37.16
			c3.51-4.02,7.37-7.72,11.08-11.57c1.84,0.49,3.68,1.41,5.52,1.42c25.92,0.09,51.84,0.07,77.76,0.07c0,12.99,0,25.98,0,39.45
			c-3.18,0-6.38,0-9.9,0C167.4,136.81,167.26,139.26,167.12,141.7z"/>
		<path class="st12" d="M422.1,94.51c-2.47,0.3-4.94,0.85-7.4,0.86c-33.64,0.06-67.28,0.04-100.91,0.04c0-20.71,0-41.43,0-62.81
			c4.15,1.15,8.02,2.11,11.83,3.28c36.33,11.15,67.9,30.28,95.04,56.82C421.2,93.25,421.62,93.91,422.1,94.51z"/>
		<path class="st3" d="M289.43,254.13c-21.41-0.01-42.81-0.04-64.22,0.02c-1.67,0-3.34,0.57-5.02,0.87
			c-9.93-9.79-19.89-19.55-29.75-29.41c-0.87-0.87-1.44-2.41-1.51-3.67c-0.16-3.12,0.04-6.26,0.1-9.4
			c33.46,0.01,66.92,0.01,100.39,0.02C289.43,226.42,289.43,240.28,289.43,254.13z"/>
		<path class="st13" d="M289.45,65.21c-33.47-0.01-66.94-0.02-100.4-0.03c0-9.58,0-19.16,0-29.43c6.92-1.76,13.93-3.86,21.07-5.3
			c16.81-3.38,33.82-5.27,50.98-4.83c8.62,0.22,17.23,1.19,25.85,1.79c1.88,0.13,2.85,0.9,2.83,2.92
			C289.63,41.96,289.55,53.59,289.45,65.21z"/>
		<path class="st14" d="M289.43,212.57c-33.46-0.01-66.92-0.01-100.39-0.02c0-12.28,0-24.56,0-36.84c33.46,0,66.92-0.01,100.38-0.01
			C289.43,187.99,289.43,200.28,289.43,212.57z"/>
		<path class="st12" d="M177.48,94.47c-25.92,0-51.84,0.03-77.76-0.07c-1.84-0.01-3.68-0.92-5.52-1.42
			c15.83-16.2,33.99-29.29,53.88-39.98c6.58-3.54,13.44-6.57,19.93-9.72c7.31,5.12,10.73,11.08,9.86,20.07
			C176.88,73.65,177.54,84.09,177.48,94.47z"/>
		<path class="st5" d="M333.35,396.69c-0.32,1.6-0.91,3.2-0.92,4.8c-0.07,14.46-0.13,28.92,0.03,43.37c0.04,3.23-0.52,5.85-3.2,7.79
			c-2.65,1.91-3.52,4.41-3.34,7.71c0.28,5.17,0.11,10.37,0.05,15.55c-0.01,1.08-0.35,2.16-0.54,3.25c-0.34-0.02-0.67-0.05-1.01-0.07
			c-0.13-1.12-0.37-2.24-0.37-3.36c-0.02-26.24,0.03-52.49-0.09-78.73c-0.01-2.67,1.04-4.33,2.79-6.06
			c13.51-13.38,27.23-26.57,40.29-40.38c4.96-5.25,10.15-6.36,17.01-5.1c-1.25,1.49-2.31,2.76-3.37,4.03
			c-4.72,4.59-9.5,9.12-14.15,13.78C355.43,374.37,344.4,385.54,333.35,396.69z"/>
		<path class="st1" d="M484.32,305.17c-0.94,4.2-1.79,8.01-2.68,12.02c-30.07,0-60.03,0-90.35,0c0-3.89,0-7.85,0-12.02
			C422.19,305.17,453.05,305.17,484.32,305.17z M398.21,314.22c6.08,0,11.66,0,17.24,0c0-2.21,0-4.14,0-6.03c-5.9,0-11.47,0-17.24,0
			C398.21,310.25,398.21,312.07,398.21,314.22z"/>
		<path class="st15" d="M311.46,89.54c-3-2.68-6.18-5.38-9.16-8.29c-0.65-0.64-0.83-1.99-0.84-3.02
			c-0.04-15.54-0.01-31.07,0.02-46.61c0-0.44,0.23-0.89,0.47-1.76c3.19,0.65,6.34,1.29,9.51,1.94
			C311.46,51.51,311.46,70.72,311.46,89.54z"/>
		<path class="st8" d="M163.48,413.77c-0.08,14.44-0.16,28.87-0.23,43.31c-0.02,3.76,0,7.52,0,11.31c-6.5-0.74-7.43-1.7-7.43-7.56
			c0-14.76,0.05-29.52-0.05-44.27c-0.02-2.4,0.6-4.12,2.41-5.72c3.77-3.32,7.39-6.81,10.99-10.3c2.54-2.47,5.25-2.7,8.24-0.99
			C172.77,404.29,168.12,409.03,163.48,413.77z"/>
		<path class="st12" d="M268.85,453.97c4.14,0,7.98,0,12.09,0c0,11.47,0,22.69,0,34.17c-4.09,0.3-7.94,0.58-12.09,0.88
			C268.85,477.34,268.85,465.93,268.85,453.97z"/>
		<path class="st16" d="M169.73,136.22c2.96,0,5.6,0,9,0c0,1.75,0,3.39,0,5.03c0,14.92-0.13,29.84,0.09,44.76
			c0.06,3.94-0.72,6.97-4.02,9.31c-1.63,1.15-2.97,2.73-5.07,4.71C169.73,178.38,169.73,157.53,169.73,136.22z M172.17,141.88
			c0,8.12,0,16.03,0,24.04c1.6,0,2.94,0,4.47,0c0-8.12,0-16.02,0-24.04C175,141.88,173.67,141.88,172.17,141.88z"/>
		<path class="st10" d="M234.87,420.23c-2.96-3.23-5.96-6.42-8.84-9.72c-0.77-0.89-1.65-2.09-1.66-3.16
			c-0.12-10.63-0.07-21.26,0.8-32.39c3.46,3.46,6.98,6.88,10.35,10.43c0.54,0.57,0.64,1.72,0.64,2.6c0.04,10.5,0.03,21,0.03,31.5
			C235.74,419.73,235.3,419.98,234.87,420.23z"/>
		<path class="st17" d="M333.35,396.69c11.05-11.15,22.08-22.32,33.17-33.44c4.65-4.66,9.43-9.19,14.15-13.78
			c0.36,0.35,0.72,0.7,1.08,1.05c-13.17,13.25-26.33,26.52-39.52,39.75c-2.54,2.55-5.19,4.99-7.79,7.49
			C334.08,397.41,333.71,397.05,333.35,396.69z"/>
		<path class="st18" d="M163.48,413.77c4.64-4.74,9.29-9.49,13.93-14.23c0.72,0.03,1.45,0.06,2.17,0.09
			c-3.86,3.99-7.77,7.94-11.56,11.98c-1.12,1.2-1.95,2.67-2.92,4.02C164.56,415.02,164.02,414.4,163.48,413.77z"/>
		<path class="st3" d="M483.68,303.03c0.31-0.25,0.62-0.5,0.94-0.74C484.3,302.54,483.99,302.78,483.68,303.03z"/>
		<path class="st19" d="M115.3,290.56c-6.42,0-12.61,0-19.09,0c0-4.26,0-8.42,0-12.93c6.32,0,12.63,0,19.09,0
			C115.3,281.99,115.3,286.15,115.3,290.56z"/>
		<path class="st20" d="M305.92,278.67c0.11-1.05,0.22-2.11,0.36-3.43c1.92,0,3.83,0,6.06,0c0.15,1.13,0.31,2.28,0.47,3.43
			c0,12.88,0,25.76,0,39c-2.3,0-4.23,0-6.89,0C305.92,304.65,305.92,291.66,305.92,278.67z"/>
		<path class="st21" d="M398.21,314.22c0-2.15,0-3.96,0-6.03c5.77,0,11.34,0,17.24,0c0,1.89,0,3.82,0,6.03
			C409.87,314.22,404.29,314.22,398.21,314.22z"/>
		<path class="st0" d="M172.17,141.88c1.5,0,2.84,0,4.47,0c0,8.02,0,15.92,0,24.04c-1.53,0-2.87,0-4.47,0
			C172.17,157.91,172.17,150,172.17,141.88z"/>
	</g>
</g>
</svg>
